<?xml version="1.0" encoding="UTF-8"?><svg id="Layer_1" xmlns="http://www.w3.org/2000/svg" viewBox="0 0 870.241 223.59"><path d="m694.336,210.275h9.121v-20.514l20.426-30.961h-10.357l-14.562,22.731-14.33-22.731h-10.732l20.436,31.169v20.306Zm-51.603,0h9.119v-43.094h16.314v-8.381h-41.75v8.381h16.316v43.094Zm-36.896,0h9.045v-51.475h-9.045v51.475Zm-31.016.719c10.807,0,18.381-5.724,18.381-15.355v-.152c0-8.531-5.592-12.417-16.475-15.073-9.926-2.35-12.268-4.112-12.268-8.076v-.15c0-3.375,3.082-6.106,8.371-6.106,4.711,0,9.346,1.841,13.973,5.291l4.851-6.824c-5.221-4.193-11.166-6.467-18.674-6.467-10.219,0-17.574,6.105-17.574,14.922v.15c0,9.48,6.182,12.702,17.139,15.358,9.557,2.198,11.601,4.189,11.601,7.866v.152c0,3.811-3.516,6.465-9.107,6.465-6.322,0-11.318-2.428-16.24-6.693l-5.441,6.467c6.164,5.517,13.596,8.227,21.463,8.227m-63.578-26.674v-17.271h13.146c6.693,0,10.666,3.014,10.666,8.531v.132c0,5.213-4.115,8.608-10.581,8.608h-13.231Zm-9.045,25.955h9.045v-17.954h11.318l12.636,17.954h10.741l-13.908-19.491c7.148-2.066,12.219-7.128,12.219-15.584v-.132c0-4.494-1.553-8.323-4.275-11.111-3.297-3.242-8.379-5.156-14.844-5.156h-22.932v51.475Zm-50.726,0h38.525v-8.097h-29.472v-13.821h25.793v-8.095h-25.793v-13.366h29.102v-8.096h-38.155v51.475Zm-39.609.358h8.01l21.316-51.833h-9.775l-15.435,39.549-15.51-39.549h-10l21.395,51.833Zm-41.235-.358h9.038v-51.475h-9.038v51.475Zm-60.058,0h8.901v-36.611l28.362,36.611h7.574v-51.475h-8.892v35.587l-27.557-35.587h-8.389v51.475Zm-36.012.795c13.456,0,22.119-7.716,22.119-23.074v-29.195h-9.033v29.632c0,9.48-4.925,14.258-12.94,14.258-8.085,0-13.011-5.081-13.011-14.616v-29.273h-9.043v29.632c0,14.922,8.532,22.638,21.908,22.638" fill="#231f20" stroke-width="0"/><path d="m825.387,135.729h8.91v-36.597l28.373,36.597h7.57v-51.452h-8.91v35.582l-27.545-35.582h-8.398v51.452Zm-46.074-20.425l8.818-20.58,8.891,20.58h-17.709Zm-17.857,20.425h9.25l5.291-12.42h24.332l5.225,12.42h9.555l-22.639-51.811h-8.379l-22.635,51.811Zm-25.437,0h9.111v-43.062h16.326v-8.389h-41.75v8.389h16.313v43.062Zm-36.904,0h9.037v-51.452h-9.037v51.452Zm-47.478,0h36.084v-8.23h-27.051v-43.221h-9.033v51.452Zm-39.256-7.49c-10.211,0-17.49-8.227-17.49-18.233v-.143c0-10,7.137-18.162,17.34-18.162s17.496,8.314,17.496,18.305v.151c0,10.006-7.127,18.082-17.346,18.082m-.15,8.381c15.809,0,26.976-12.135,26.976-26.614v-.143c0-14.484-11.025-26.458-26.826-26.458s-26.98,12.125-26.98,26.601v.151c0,14.479,11.035,26.463,26.83,26.463m-66.074-25.581v-18.523h10.521c6.75,0,11.09,3.157,11.09,9.186v.142c0,5.375-4.266,9.195-11.09,9.195h-10.521Zm-9.045,24.69h9.045v-16.534h10.219c11.318,0,20.57-6.033,20.57-17.57v-.152c0-10.352-7.488-17.196-19.547-17.196h-20.287v51.452Zm-39.244-7.49c-10.218,0-17.5-8.227-17.5-18.233v-.143c0-10,7.129-18.162,17.348-18.162s17.5,8.314,17.5,18.305v.151c0,10.006-7.139,18.082-17.348,18.082m-.152,8.381c15.812,0,26.98-12.135,26.98-26.614v-.143c0-14.484-11.025-26.458-26.828-26.458s-26.978,12.125-26.978,26.601v.151c0,14.479,11.033,26.463,26.825,26.463m-70.119-26.833v-17.271h13.149c6.691,0,10.662,3.014,10.662,8.521v.152c0,5.223-4.114,8.598-10.578,8.598h-13.233Zm-9.044,25.942h9.044v-17.932h11.317l12.637,17.932h10.74l-13.887-19.477c7.119-2.056,12.199-7.128,12.199-15.584v-.142c0-4.485-1.545-8.314-4.273-11.101-3.301-3.232-8.381-5.148-14.845-5.148h-22.933v51.452Zm-36.462,0h9.114v-43.062h16.319v-8.389h-41.748v8.389h16.315v43.062Zm-63.357,0h38.52v-8.076h-29.473v-13.828h25.789v-8.076h-25.789v-13.385h29.103v-8.086h-38.151v51.452Zm-65.272,0h8.893v-36.749l16.106,24.122h.29l16.242-24.264v36.891h9.044v-51.452h-9.627l-15.659,24.334-15.657-24.334h-9.631v51.452Z" fill="#231f20" stroke-width="0"/><path d="m543.881,61.203h8.891V24.594l28.371,36.609h7.576V9.749h-8.894v35.578l-27.566-35.578h-8.377v51.455Zm-39.266-7.497c-10.199,0-17.478-8.229-17.478-18.23v-.143c0-10,7.125-18.163,17.346-18.163s17.479,8.314,17.479,18.306v.152c0,9.991-7.12,18.078-17.347,18.078m-.133,8.38c15.792,0,26.969-12.134,26.969-26.609v-.143c0-14.484-11.023-26.467-26.836-26.467s-26.969,12.125-26.969,26.609v.152c0,14.476,11.023,26.458,26.836,26.458m-64.329-44.109c10.816,0,17.879,7.423,17.879,17.499v.152c0,10.057-7.062,17.337-17.879,17.337h-10.143V17.977h10.143Zm-19.176,43.226h19.176c16.174,0,27.35-11.251,27.35-25.727v-.143c0-14.484-11.176-25.585-27.35-25.585h-19.176v51.455Zm-59.537,0h8.892V24.594l28.377,36.609h7.57V9.749h-8.904v35.578l-27.555-35.578h-8.38v51.455Zm-39.256-7.497c-10.218,0-17.489-8.229-17.489-18.23v-.143c0-10,7.124-18.163,17.343-18.163s17.494,8.314,17.494,18.306v.152c0,9.991-7.124,18.078-17.348,18.078m-.146,8.38c15.807,0,26.978-12.134,26.978-26.609v-.143c0-14.484-11.028-26.467-26.832-26.467s-26.973,12.125-26.973,26.609v.152c0,14.476,11.024,26.458,26.827,26.458m-68.581-.883h36.095v-8.237h-27.055V9.749h-9.04v51.455Z" fill="#231f20" stroke-width="0"/><path d="m5.787,106c3.195,0,5.788,2.597,5.788,5.792s-2.593,5.782-5.788,5.782-5.787-2.578-5.787-5.782,2.593-5.792,5.787-5.792" fill="#231f20" stroke-width="0"/><path d="m26.239,106c3.19,0,5.783,2.597,5.783,5.792s-2.593,5.782-5.783,5.782-5.787-2.578-5.787-5.782,2.593-5.792,5.787-5.792" fill="#231f20" stroke-width="0"/><path d="m46.881,106c3.19,0,5.783,2.597,5.783,5.792s-2.593,5.782-5.783,5.782-5.787-2.578-5.787-5.782,2.593-5.792,5.787-5.792" fill="#231f20" stroke-width="0"/><path d="m66.172,106c3.194,0,5.782,2.597,5.782,5.792s-2.588,5.782-5.782,5.782-5.788-2.578-5.788-5.782,2.593-5.792,5.788-5.792" fill="#231f20" stroke-width="0"/><path d="m58.455,91.533c3.19,0,5.783,2.588,5.783,5.783s-2.593,5.792-5.783,5.792-5.787-2.587-5.787-5.792,2.593-5.783,5.787-5.783" fill="#231f20" stroke-width="0"/><path d="m39.16,85.742c3.194,0,5.787,2.597,5.787,5.792s-2.593,5.783-5.787,5.783-5.782-2.588-5.782-5.783,2.592-5.792,5.782-5.792" fill="#231f20" stroke-width="0"/><path d="m18.712,79.959c3.194,0,5.788,2.588,5.788,5.783s-2.594,5.792-5.788,5.792-5.782-2.587-5.782-5.792,2.587-5.783,5.782-5.783" fill="#231f20" stroke-width="0"/><path d="m17.096,159.771c2.768-1.591,6.309-.644,7.903,2.124,1.601,2.768.648,6.314-2.115,7.907-2.768,1.592-6.313.662-7.906-2.123-1.597-2.769-.65-6.296,2.118-7.908" fill="#231f20" stroke-width="0"/><path d="m34.804,149.554c2.768-1.594,6.314-.643,7.902,2.124,1.602,2.767.653,6.312-2.114,7.904-2.768,1.594-6.309.645-7.901-2.123-1.603-2.768-.65-6.293,2.113-7.905" fill="#231f20" stroke-width="0"/><path d="m52.682,139.24c2.768-1.612,6.309-.665,7.901,2.102,1.602,2.771.65,6.315-2.113,7.926-2.769,1.594-6.313.646-7.906-2.142-1.598-2.75-.65-6.295,2.118-7.887" fill="#231f20" stroke-width="0"/><path d="m69.391,129.59c2.763-1.594,6.308-.646,7.901,2.121,1.601,2.771.648,6.296-2.119,7.908-2.763,1.592-6.309.644-7.902-2.124-1.601-2.767-.649-6.313,2.119-7.905" fill="#231f20" stroke-width="0"/><path d="m55.475,120.925c2.763-1.612,6.309-.662,7.911,2.105,1.588,2.768.639,6.314-2.129,7.905-2.767,1.594-6.308.664-7.9-2.124-1.601-2.767-.648-6.293,2.119-7.887" fill="#231f20" stroke-width="0"/><path d="m35.871,125.551c2.768-1.592,6.308-.644,7.902,2.124,1.602,2.767.648,6.295-2.115,7.905-2.767,1.594-6.313.646-7.9-2.124-1.603-2.768-.655-6.311,2.113-7.905" fill="#231f20" stroke-width="0"/><path d="m15.267,130.764c2.767-1.609,6.309-.644,7.902,2.124,1.602,2.749.649,6.295-2.115,7.907-2.769,1.592-6.308.645-7.901-2.123-1.601-2.768-.653-6.315,2.114-7.908" fill="#231f20" stroke-width="0"/><path d="m53.778,200.706c1.602-2.77,5.138-3.718,7.901-2.124,2.777,1.592,3.721,5.138,2.128,7.905-1.602,2.768-5.147,3.718-7.91,2.124-2.768-1.594-3.722-5.138-2.119-7.905" fill="#231f20" stroke-width="0"/><path d="m64,182.996c1.603-2.768,5.139-3.715,7.908-2.123,2.772,1.594,3.715,5.14,2.122,7.907-1.601,2.767-5.143,3.715-7.911,2.105-2.768-1.594-3.715-5.119-2.119-7.889" fill="#231f20" stroke-width="0"/><path d="m74.324,165.119c1.603-2.77,5.139-3.717,7.902-2.123,2.777,1.592,3.721,5.138,2.129,7.905-1.602,2.768-5.149,3.715-7.912,2.105-2.767-1.572-3.72-5.119-2.119-7.887" fill="#231f20" stroke-width="0"/><path d="m83.97,148.417c1.602-2.771,5.139-3.735,7.902-2.124,2.776,1.592,3.719,5.138,2.128,7.905-1.603,2.767-5.148,3.718-7.911,2.105-2.768-1.594-3.721-5.138-2.119-7.887" fill="#231f20" stroke-width="0"/><path d="m67.58,147.846c1.602-2.746,5.137-3.715,7.901-2.103,2.776,1.591,3.72,5.138,2.128,7.905-1.602,2.77-5.143,3.717-7.912,2.105-2.768-1.592-3.72-5.139-2.118-7.908" fill="#231f20" stroke-width="0"/><path d="m52.924,161.67c1.603-2.77,5.133-3.718,7.902-2.124,2.778,1.591,3.716,5.138,2.124,7.905-1.597,2.768-5.144,3.715-7.911,2.123-2.763-1.594-3.716-5.137-2.115-7.904" fill="#231f20" stroke-width="0"/><path d="m37.686,176.493c1.602-2.768,5.139-3.733,7.901-2.121,2.777,1.591,3.72,5.138,2.128,7.905-1.603,2.767-5.142,3.715-7.911,2.104-2.768-1.594-3.721-5.14-2.119-7.889" fill="#231f20" stroke-width="0"/><path d="m106.01,217.788c0-3.185,2.587-5.784,5.781-5.784s5.789,2.599,5.789,5.784c0,3.203-2.593,5.802-5.789,5.802s-5.781-2.599-5.781-5.802" fill="#231f20" stroke-width="0"/><path d="m106.01,197.35c0-3.204,2.587-5.781,5.781-5.781s5.789,2.577,5.789,5.781c0,3.186-2.593,5.781-5.789,5.781s-5.781-2.596-5.781-5.781" fill="#231f20" stroke-width="0"/><path d="m106.005,176.703c0-3.186,2.592-5.784,5.786-5.784s5.789,2.599,5.789,5.784c0,3.203-2.584,5.781-5.789,5.781s-5.786-2.578-5.786-5.781" fill="#231f20" stroke-width="0"/><path d="m106.01,157.422c0-3.205,2.587-5.802,5.781-5.802s5.789,2.597,5.789,5.802c0,3.184-2.593,5.782-5.789,5.782s-5.781-2.599-5.781-5.782" fill="#231f20" stroke-width="0"/><path d="m91.539,165.138c0-3.204,2.593-5.802,5.783-5.802s5.787,2.598,5.787,5.802c0,3.186-2.583,5.781-5.787,5.781s-5.783-2.596-5.783-5.781" fill="#231f20" stroke-width="0"/><path d="m85.752,184.419c0-3.186,2.593-5.782,5.783-5.782s5.787,2.597,5.787,5.782c0,3.203-2.593,5.783-5.787,5.783s-5.783-2.58-5.783-5.783" fill="#231f20" stroke-width="0"/><path d="m79.965,204.875c0-3.203,2.593-5.781,5.783-5.781s5.787,2.578,5.787,5.781c0,3.186-2.593,5.784-5.787,5.784s-5.783-2.599-5.783-5.784" fill="#231f20" stroke-width="0"/><path d="m159.788,206.487c-1.603-2.767-.655-6.313,2.113-7.905,2.769-1.594,6.308-.646,7.911,2.124,1.593,2.768.654,6.311-2.124,7.905-2.767,1.594-6.3.644-7.9-2.124" fill="#231f20" stroke-width="0"/><path d="m149.563,188.78c-1.601-2.768-.653-6.313,2.115-7.907,2.767-1.592,6.309-.645,7.911,2.123,1.592,2.77.649,6.315-2.123,7.907-2.769,1.592-6.303.644-7.902-2.123" fill="#231f20" stroke-width="0"/><path d="m139.24,170.901c-1.602-2.768-.649-6.314,2.114-7.905,2.768-1.594,6.313-.646,7.915,2.123,1.588,2.767.65,6.314-2.128,7.905-2.769,1.592-6.299.645-7.901-2.123" fill="#231f20" stroke-width="0"/><path d="m129.595,154.198c-1.603-2.768-.65-6.314,2.114-7.905,2.768-1.594,6.313-.664,7.914,2.124,1.589,2.767.651,6.293-2.128,7.887-2.768,1.612-6.299.662-7.9-2.105" fill="#231f20" stroke-width="0"/><path d="m120.92,168.113c-1.601-2.768-.648-6.311,2.119-7.905,2.763-1.591,6.309-.644,7.912,2.124,1.592,2.767.648,6.313-2.129,7.887-2.763,1.611-6.299.664-7.902-2.105" fill="#231f20" stroke-width="0"/><path d="m125.557,187.718c-1.602-2.767-.649-6.313,2.118-7.925,2.764-1.573,6.309-.626,7.912,2.144,1.592,2.768.648,6.293-2.128,7.887-2.769,1.61-6.3.662-7.902-2.106" fill="#231f20" stroke-width="0"/><path d="m130.771,208.308c-1.603-2.75-.65-6.296,2.113-7.887,2.769-1.612,6.309-.665,7.911,2.104,1.593,2.768.654,6.314-2.124,7.905-2.767,1.612-6.299.644-7.9-2.123" fill="#231f20" stroke-width="0"/><path d="m200.706,169.803c-2.768-1.594-3.716-5.14-2.114-7.907,1.588-2.767,5.133-3.715,7.901-2.124,2.763,1.612,3.716,5.158,2.113,7.926-1.591,2.749-5.133,3.715-7.9,2.105" fill="#231f20" stroke-width="0"/><path d="m182.998,159.582c-2.769-1.611-3.722-5.137-2.119-7.904,1.592-2.768,5.138-3.718,7.9-2.124,2.769,1.592,3.722,5.138,2.119,7.905-1.591,2.768-5.138,3.717-7.9,2.123" fill="#231f20" stroke-width="0"/><path d="m165.12,149.269c-2.768-1.61-3.716-5.138-2.119-7.905,1.592-2.788,5.137-3.715,7.901-2.123,2.769,1.592,3.721,5.137,2.118,7.904-1.591,2.77-5.133,3.718-7.9,2.124" fill="#231f20" stroke-width="0"/><path d="m148.412,139.619c-2.763-1.612-3.716-5.138-2.114-7.926,1.593-2.749,5.133-3.697,7.9-2.104,2.769,1.592,3.717,5.139,2.114,7.905-1.591,2.768-5.133,3.716-7.9,2.124" fill="#231f20" stroke-width="0"/><path d="m147.862,156c-2.767-1.594-3.721-5.138-2.119-7.907,1.593-2.768,5.133-3.716,7.901-2.124,2.778,1.612,3.721,5.158,2.128,7.926-1.601,2.749-5.147,3.717-7.911,2.105" fill="#231f20" stroke-width="0"/><path d="m161.674,170.654c-2.763-1.592-3.716-5.137-2.114-7.904,1.593-2.771,5.133-3.718,7.902-2.124,2.768,1.612,3.716,5.155,2.113,7.926-1.592,2.768-5.133,3.715-7.901,2.103" fill="#231f20" stroke-width="0"/><path d="m176.491,185.899c-2.769-1.612-3.717-5.138-2.114-7.907,1.593-2.767,5.133-3.716,7.9-2.124,2.764,1.612,3.717,5.14,2.123,7.907-1.601,2.768-5.142,3.716-7.91,2.124" fill="#231f20" stroke-width="0"/><path d="m217.802,117.573c-3.194,0-5.786-2.587-5.786-5.782s2.592-5.792,5.786-5.783c3.194,0,5.788,2.579,5.788,5.783s-2.594,5.782-5.788,5.782" fill="#231f20" stroke-width="0"/><path d="m197.354,117.573c-3.194,0-5.786-2.587-5.786-5.782s2.592-5.783,5.786-5.783c3.19-.009,5.784,2.588,5.784,5.783s-2.594,5.782-5.784,5.782" fill="#231f20" stroke-width="0"/><path d="m176.708,117.573c-3.19,0-5.782-2.587-5.782-5.782s2.592-5.783,5.782-5.783,5.788,2.579,5.788,5.783-2.594,5.782-5.788,5.782" fill="#231f20" stroke-width="0"/><path d="m157.418,117.573c-3.19,0-5.784-2.587-5.784-5.782s2.594-5.783,5.784-5.783,5.786,2.579,5.786,5.783-2.592,5.782-5.786,5.782" fill="#231f20" stroke-width="0"/><path d="m165.133,132.055c-3.194,0-5.781-2.6-5.781-5.803s2.587-5.781,5.781-5.781,5.788,2.578,5.788,5.781-2.594,5.803-5.788,5.803" fill="#231f20" stroke-width="0"/><path d="m184.43,137.836c-3.196,0-5.788-2.597-5.788-5.781,0-3.204,2.593-5.782,5.788-5.782s5.781,2.578,5.781,5.782c0,3.185-2.587,5.781-5.781,5.781" fill="#231f20" stroke-width="0"/><path d="m204.876,143.619c-3.194,0-5.787-2.598-5.787-5.783,0-3.204,2.593-5.781,5.787-5.781s5.783,2.577,5.783,5.781c0,3.185-2.587,5.783-5.783,5.783" fill="#231f20" stroke-width="0"/><path d="m206.493,63.797c-2.768,1.602-6.309.653-7.901-2.114-1.602-2.769-.648-6.313,2.114-7.916,2.768-1.593,6.313-.645,7.905,2.133,1.599,2.758.651,6.294-2.118,7.897" fill="#231f20" stroke-width="0"/><path d="m188.785,74.024c-2.768,1.603-6.308.645-7.9-2.123-1.603-2.758-.654-6.303,2.114-7.905,2.768-1.593,6.309-.654,7.9,2.124,1.603,2.767.649,6.303-2.114,7.905" fill="#231f20" stroke-width="0"/><path d="m170.907,84.348c-2.769,1.594-6.309.645-7.911-2.123-1.593-2.769-.639-6.304,2.128-7.906,2.763-1.593,6.309-.654,7.901,2.123,1.598,2.768.65,6.304-2.118,7.905" fill="#231f20" stroke-width="0"/><path d="m154.198,93.989c-2.763,1.601-6.308.654-7.91-2.114-1.592-2.768-.639-6.312,2.128-7.916,2.763-1.593,6.309-.644,7.9,2.133,1.603,2.758.649,6.295-2.119,7.897" fill="#231f20" stroke-width="0"/><path d="m168.115,102.663c-2.763,1.603-6.309.654-7.901-2.114-1.601-2.768-.649-6.312,2.119-7.915,2.763-1.594,6.308-.645,7.901,2.124,1.601,2.767.648,6.303-2.119,7.905" fill="#231f20" stroke-width="0"/><path d="m187.718,98.027c-2.768,1.602-6.308.654-7.91-2.114-1.594-2.768-.641-6.314,2.123-7.916,2.768-1.593,6.313-.644,7.905,2.123,1.599,2.769.65,6.305-2.119,7.906" fill="#231f20" stroke-width="0"/><path d="m208.323,92.814c-2.769,1.602-6.309.654-7.903-2.113-1.601-2.769-.648-6.314,2.115-7.917,2.769-1.592,6.313-.644,7.901,2.124,1.602,2.769.654,6.304-2.113,7.906" fill="#231f20" stroke-width="0"/><path d="m169.812,22.883c-1.603,2.758-5.133,3.716-7.9,2.114-2.779-1.593-3.722-5.139-2.129-7.906,1.602-2.767,5.139-3.716,7.911-2.114,2.768,1.593,3.721,5.139,2.119,7.906" fill="#231f20" stroke-width="0"/><path d="m159.588,40.59c-1.602,2.769-5.139,3.716-7.906,2.114-2.772-1.592-3.715-5.137-2.123-7.906,1.603-2.768,5.143-3.716,7.912-2.124,2.768,1.603,3.715,5.148,2.118,7.916" fill="#231f20" stroke-width="0"/><path d="m149.265,58.469c-1.602,2.758-5.133,3.716-7.911,2.114-2.767-1.593-3.706-5.139-2.114-7.906,1.598-2.769,5.143-3.716,7.912-2.124,2.763,1.602,3.715,5.147,2.113,7.916" fill="#231f20" stroke-width="0"/><path d="m139.619,75.172c-1.601,2.769-5.133,3.716-7.91,2.114-2.768-1.592-3.707-5.139-2.119-7.897,1.602-2.767,5.147-3.725,7.915-2.124,2.764,1.593,3.716,5.139,2.113,7.906" fill="#231f20" stroke-width="0"/><path d="m156.004,75.722c-1.596,2.768-5.133,3.716-7.9,2.113-2.773-1.582-3.716-5.128-2.124-7.896,1.602-2.769,5.142-3.716,7.911-2.114,2.768,1.593,3.716,5.128,2.113,7.897" fill="#231f20" stroke-width="0"/><path d="m170.665,61.91c-1.602,2.769-5.133,3.716-7.911,2.114-2.763-1.593-3.706-5.139-2.114-7.897,1.603-2.768,5.144-3.725,7.912-2.132,2.767,1.602,3.715,5.146,2.113,7.915" fill="#231f20" stroke-width="0"/><path d="m185.903,47.093c-1.601,2.769-5.133,3.716-7.9,2.115-2.778-1.593-3.716-5.129-2.128-7.897,1.602-2.767,5.147-3.715,7.915-2.132,2.763,1.603,3.716,5.148,2.113,7.915" fill="#231f20" stroke-width="0"/><path d="m117.584,5.781c0,3.195-2.593,5.783-5.787,5.783s-5.792-2.588-5.792-5.783,2.587-5.781,5.792-5.781,5.787,2.587,5.787,5.781" fill="#231f20" stroke-width="0"/><path d="m117.58,26.229c0,3.194-2.588,5.792-5.783,5.792s-5.787-2.598-5.787-5.792c-.009-3.194,2.591-5.783,5.787-5.783s5.783,2.588,5.783,5.783" fill="#231f20" stroke-width="0"/><path d="m117.584,46.876c0,3.194-2.593,5.783-5.787,5.783s-5.787-2.588-5.787-5.783,2.582-5.792,5.787-5.792,5.787,2.597,5.787,5.792" fill="#231f20" stroke-width="0"/><path d="m117.58,66.167c0,3.194-2.588,5.783-5.783,5.783s-5.787-2.588-5.787-5.783,2.591-5.792,5.787-5.792,5.783,2.597,5.783,5.792" fill="#231f20" stroke-width="0"/><path d="m132.05,58.45c0,3.194-2.592,5.783-5.782,5.783s-5.788-2.588-5.788-5.783,2.583-5.782,5.788-5.782,5.782,2.587,5.782,5.782" fill="#231f20" stroke-width="0"/><path d="m137.838,39.16c0,3.195-2.589,5.782-5.784,5.782s-5.786-2.587-5.796-5.782c0-3.194,2.593-5.793,5.796-5.793s5.784,2.599,5.784,5.793" fill="#231f20" stroke-width="0"/><path d="m143.624,18.712c0,3.185-2.587,5.783-5.781,5.783s-5.798-2.598-5.798-5.783,2.593-5.793,5.798-5.793,5.781,2.598,5.781,5.793" fill="#231f20" stroke-width="0"/><path d="m63.802,17.091c1.603,2.768.654,6.314-2.114,7.896-2.768,1.603-6.308.665-7.91-2.113-1.594-2.769-.655-6.304,2.113-7.897,2.778-1.602,6.309-.653,7.911,2.114" fill="#231f20" stroke-width="0"/><path d="m74.026,34.799c1.602,2.768.654,6.313-2.113,7.906-2.769,1.602-6.309.645-7.912-2.123-1.591-2.758-.648-6.303,2.124-7.897,2.768-1.602,6.305-.653,7.902,2.115" fill="#231f20" stroke-width="0"/><path d="m84.349,52.677c1.601,2.767.649,6.313-2.113,7.906-2.769,1.602-6.314.644-7.912-2.124-1.591-2.759-.653-6.304,2.114-7.897,2.778-1.602,6.309-.654,7.911,2.114" fill="#231f20" stroke-width="0"/><path d="m93.995,69.38c1.601,2.767.648,6.314-2.114,7.915-2.768,1.593-6.314.654-7.915-2.123-1.588-2.768-.65-6.314,2.128-7.906,2.769-1.602,6.299-.644,7.902,2.115" fill="#231f20" stroke-width="0"/><path d="m102.668,55.464c1.602,2.769.649,6.314-2.119,7.906-2.763,1.602-6.308.644-7.911-2.114-1.591-2.768-.648-6.314,2.128-7.906,2.763-1.601,6.3-.644,7.902,2.115" fill="#231f20" stroke-width="0"/><path d="m98.032,35.86c1.602,2.768.65,6.314-2.113,7.915-2.769,1.593-6.313.645-7.911-2.123-1.592-2.768-.654-6.304,2.115-7.906,2.776-1.602,6.309-.644,7.91,2.114" fill="#231f20" stroke-width="0"/><path d="m92.819,15.262c1.602,2.767.654,6.312-2.115,7.905-2.767,1.603-6.309.654-7.91-2.123-1.594-2.758-.65-6.303,2.113-7.896,2.778-1.603,6.309-.654,7.911,2.115" fill="#231f20" stroke-width="0"/><path d="m22.884,53.777c2.768,1.602,3.72,5.128,2.119,7.897-1.594,2.776-5.139,3.725-7.901,2.123-2.768-1.603-3.721-5.128-2.119-7.907,1.593-2.768,5.133-3.715,7.901-2.113" fill="#231f20" stroke-width="0"/><path d="m40.596,63.996c2.763,1.602,3.716,5.138,2.114,7.905-1.592,2.779-5.133,3.717-7.901,2.123-2.778-1.601-3.716-5.146-2.128-7.915,1.602-2.758,5.148-3.716,7.915-2.113" fill="#231f20" stroke-width="0"/><path d="m58.47,74.319c2.768,1.601,3.72,5.137,2.119,7.906-1.594,2.768-5.139,3.716-7.903,2.123-2.768-1.602-3.72-5.146-2.128-7.914,1.602-2.769,5.143-3.716,7.912-2.114" fill="#231f20" stroke-width="0"/><path d="m75.178,83.969c2.763,1.603,3.715,5.128,2.114,7.897-1.594,2.778-5.133,3.716-7.901,2.124-2.769-1.602-3.716-5.139-2.114-7.906,1.592-2.767,5.134-3.716,7.901-2.114" fill="#231f20" stroke-width="0"/><path d="m75.728,67.579c2.768,1.603,3.72,5.129,2.118,7.897-1.592,2.778-5.137,3.726-7.901,2.133-2.768-1.602-3.72-5.148-2.118-7.916,1.592-2.767,5.137-3.716,7.901-2.114" fill="#231f20" stroke-width="0"/><path d="m61.916,52.915c2.763,1.601,3.715,5.137,2.114,7.914-1.594,2.769-5.133,3.707-7.903,2.114-2.767-1.602-3.715-5.146-2.122-7.906,1.602-2.767,5.143-3.725,7.911-2.122" fill="#231f20" stroke-width="0"/><path d="m47.099,37.68c2.768,1.603,3.716,5.138,2.114,7.906-1.594,2.769-5.133,3.716-7.901,2.123-2.764-1.602-3.716-5.148-2.124-7.916,1.602-2.767,5.143-3.716,7.911-2.114" fill="#231f20" stroke-width="0"/></svg>